<svg xmlns="http://www.w3.org/2000/svg" viewBox="0 0 64 64">
  <defs>
    <linearGradient id="hueb" x1="0" y1="0" x2="1" y2="1">
      <stop offset="0" stop-color="#ffd86b"/>
      <stop offset="1" stop-color="#ff7ac6"/>
    </linearGradient>
  </defs>
  <rect width="64" height="64" rx="14" fill="#101019"/>
  <!-- bulb -->
  <path fill="url(#hueb)" d="M32 13c-9 0-16 6.9-16 16 0 6 3.3 10.4 6.6 13.2 1.5 1.3 2.4 2.5 2.7 4.1l.4 2.2h12.6l.4-2.2c.3-1.6 1.2-2.8 2.7-4.1C44.7 39.4 48 35 48 29c0-9.1-7-16-16-16z"/>
  <!-- base -->
  <rect x="25" y="50" width="14" height="4" rx="2" fill="#9aa0c4"/>
  <rect x="27" y="55" width="10" height="3.5" rx="1.75" fill="#6b7194"/>
</svg>
